<?xml version="1.0" encoding="UTF-8"?>
<svg width="50px" height="50px" viewBox="0 0 50 50" version="1.1" xmlns="http://www.w3.org/2000/svg" xmlns:xlink="http://www.w3.org/1999/xlink">
    <!-- Generator: Sketch 46.2 (44496) - http://www.bohemiancoding.com/sketch -->
    <title>Group 5</title>
    <desc>Created with Sketch.</desc>
    <defs></defs>
    <g id="Page-1" stroke="none" stroke-width="1" fill="none" fill-rule="evenodd">
        <g id="3" transform="translate(-305.000000, -41.000000)">
            <g id="Group-7">
                <g id="Group-5" transform="translate(305.000000, 41.000000)">
                    <path d="M25,48 C37.7025492,48 48,37.7025492 48,25 C48,12.2974508 37.7025492,2 25,2 C12.2974508,2 2,12.2974508 2,25 C2,37.7025492 12.2974508,48 25,48 Z M25,50 C11.1928813,50 0,38.8071187 0,25 C0,11.1928813 11.1928813,0 25,0 C38.8071187,0 50,11.1928813 50,25 C50,38.8071187 38.8071187,50 25,50 Z" id="Oval" fill="#FFFFFF" fill-rule="nonzero" opacity="0.5"></path>
                    <path d="M25,16 L25,34" id="Path-5" stroke="#FFFFFF" stroke-width="2" transform="translate(25.000000, 25.000000) rotate(45.000000) translate(-25.000000, -25.000000) "></path>
                    <path d="M34,25 L16,25" id="Path-6" stroke="#FFFFFF" stroke-width="2" transform="translate(25.000000, 25.000000) rotate(45.000000) translate(-25.000000, -25.000000) "></path>
                </g>
            </g>
        </g>
    </g>
</svg>